<?xml version="1.0" standalone="no"?>
<!DOCTYPE svg PUBLIC "-//W3C//DTD SVG 20010904//EN"
 "http://www.w3.org/TR/2001/REC-SVG-20010904/DTD/svg10.dtd">
<svg version="1.0" xmlns="http://www.w3.org/2000/svg"
 width="512.000000pt" height="512.000000pt" viewBox="0 0 512.000000 512.000000"
 preserveAspectRatio="xMidYMid meet">

<g transform="translate(0.000000,512.000000) scale(0.100000,-0.100000)"
fill="#000000" stroke="none">
<path d="M3520 5113 c-62 -11 -130 -36 -172 -62 -25 -16 -534 -513 -1131
-1105 -1158 -1149 -1122 -1110 -1161 -1248 -21 -72 -21 -199 0 -269 36 -121
49 -137 473 -564 1323 -1335 1757 -1768 1799 -1792 331 -194 735 30 735 407 0
97 -18 164 -69 250 -22 39 -284 313 -876 916 -463 474 -856 875 -873 893 l-29
32 891 892 c937 938 921 920 959 1046 8 25 14 83 14 127 0 191 -97 348 -269
434 -77 38 -207 58 -291 43z m157 -352 c50 -36 67 -76 61 -144 l-5 -52 -961
-955 c-558 -554 -966 -967 -972 -983 -13 -36 -13 -88 1 -124 5 -16 429 -447
964 -983 535 -536 959 -967 964 -983 15 -39 14 -73 -5 -112 -22 -48 -68 -69
-138 -63 l-57 5 -157 154 c-86 85 -571 566 -1078 1069 -824 817 -923 919 -929
953 -5 22 -2 49 5 67 12 29 2152 2162 2180 2173 39 15 88 6 127 -22z"/>
</g>
</svg>
