<?xml version="1.0" standalone="no"?>
<!DOCTYPE svg PUBLIC "-//W3C//DTD SVG 20010904//EN"
 "http://www.w3.org/TR/2001/REC-SVG-20010904/DTD/svg10.dtd">
<svg version="1.0" xmlns="http://www.w3.org/2000/svg"
 width="512.000000pt" height="512.000000pt" viewBox="0 0 512.000000 512.000000"
 preserveAspectRatio="xMidYMid meet">

<g transform="translate(0.000000,512.000000) scale(0.100000,-0.100000)"
fill="#000000" stroke="none">
<path d="M537 4740 c-142 -36 -253 -167 -264 -314 -3 -33 0 -79 6 -100 10 -38
9 -41 -30 -83 -63 -69 -84 -123 -84 -223 0 -98 18 -157 71 -226 l35 -45 -27
-55 c-58 -120 -37 -276 53 -374 l23 -26 -20 -52 c-25 -66 -25 -93 0 -120 22
-24 68 -29 100 -12 10 5 28 38 39 72 45 135 152 269 260 326 72 39 103 40 130
6 27 -34 29 -144 5 -239 -15 -60 -15 -67 0 -90 9 -13 26 -27 39 -29 12 -3 49
-10 82 -17 169 -32 288 -144 339 -318 9 -30 16 -79 16 -108 l0 -53 -215 0
-214 0 -12 38 c-6 20 -13 90 -14 155 -4 135 -14 157 -72 157 -41 0 -70 -27
-79 -76 -7 -37 1 -196 12 -246 l6 -28 -114 0 -115 0 -26 58 c-14 31 -32 83
-41 114 -20 71 -50 95 -99 81 -20 -5 -37 -19 -46 -38 -12 -26 -11 -37 9 -104
12 -42 25 -84 27 -93 5 -16 -4 -18 -81 -18 -50 0 -100 -6 -119 -14 -42 -17
-93 -76 -107 -123 -8 -26 -10 -160 -8 -419 l3 -380 28 -43 c17 -26 45 -50 72
-63 l45 -22 0 -78 0 -78 -38 -19 c-47 -24 -77 -56 -97 -103 -23 -55 -23 -771
0 -826 21 -49 52 -81 100 -103 39 -18 128 -19 2445 -19 2317 0 2406 1 2445 19
48 22 79 54 100 103 23 55 23 771 0 826 -20 47 -50 79 -97 103 l-38 19 0 78 0
77 42 20 c25 12 55 39 73 64 l30 43 3 381 c2 259 0 394 -8 420 -14 47 -65 106
-107 123 -20 9 -72 14 -137 14 l-104 0 -16 70 c-8 38 -27 93 -42 121 -32 65
-112 146 -181 185 l-53 29 0 62 c0 80 -29 158 -80 215 l-39 45 25 77 c31 98
32 207 4 297 -10 35 -18 64 -17 64 79 31 170 117 209 196 39 80 54 173 40 245
-7 31 -17 63 -23 70 -30 36 -170 57 -276 41 -48 -7 -53 -6 -53 11 0 39 -61
140 -116 192 -50 48 -59 52 -90 47 -101 -17 -206 -102 -261 -213 -31 -64 -37
-88 -41 -158 l-4 -84 -44 -6 c-25 -3 -67 -15 -94 -27 l-49 -21 -28 33 c-42 50
-79 81 -131 109 -44 24 -47 28 -54 79 -28 192 -230 338 -420 302 -161 -29
-290 -159 -305 -305 -5 -53 -6 -54 -55 -77 -31 -14 -73 -48 -107 -86 l-57 -62
-27 22 c-26 21 -27 24 -17 82 12 73 -1 158 -36 226 -29 58 -57 79 -105 79 -49
0 -149 -32 -189 -60 l-31 -22 -47 46 c-49 50 -150 106 -189 106 -35 0 -114
-79 -147 -146 -17 -34 -30 -81 -34 -116 -3 -43 -10 -61 -21 -65 -64 -22 -144
-64 -188 -100 -29 -24 -57 -43 -62 -43 -4 0 -11 35 -13 78 -6 91 -36 160 -99
223 -49 49 -135 91 -201 97 -45 4 -49 7 -77 56 -57 102 -163 166 -280 172 -36
2 -83 -1 -104 -6z m144 -151 c56 -19 93 -54 127 -117 40 -74 64 -90 153 -101
56 -7 79 -16 107 -38 67 -54 75 -73 82 -184 6 -101 6 -102 43 -136 l38 -34
-20 -62 c-10 -34 -22 -90 -26 -123 l-7 -62 -45 -7 c-25 -3 -46 -5 -48 -3 -2 2
-25 53 -50 113 -89 212 -187 379 -260 444 -90 79 -185 35 -200 -92 -8 -68 16
-227 59 -392 19 -71 31 -131 26 -133 -39 -14 -137 -92 -196 -155 l-72 -77 -16
40 c-25 63 -20 108 20 190 47 94 44 131 -16 196 -96 105 -95 208 5 315 55 58
61 83 45 169 -14 76 -10 106 26 167 17 29 39 49 76 67 57 28 96 32 149 15z
m2417 -125 c60 -35 90 -86 106 -178 15 -85 41 -124 100 -147 43 -17 91 -53
116 -89 l22 -30 -30 -34 c-45 -51 -88 -117 -158 -239 l-62 -109 -5 39 c-3 21
-9 65 -12 98 -17 160 -69 328 -114 369 -48 44 -125 36 -166 -18 -50 -66 -95
-256 -111 -468 -4 -54 -8 -98 -10 -98 -1 0 -19 9 -38 21 -27 16 -49 20 -89 17
l-53 -3 1 110 c0 115 -15 183 -57 252 -19 32 -19 32 1 71 24 47 70 88 123 109
63 25 94 69 106 153 12 84 43 136 97 170 74 46 158 47 233 4z m1002 -71 c28
-59 29 -155 2 -215 -29 -67 -39 -71 -103 -47 -30 12 -65 26 -78 31 -22 8 -23
13 -19 76 4 86 38 154 97 200 41 31 45 32 62 16 10 -9 27 -36 39 -61z m-2257
-12 c26 -23 57 -70 57 -86 0 -3 -38 -5 -85 -5 -79 0 -85 1 -85 20 0 23 25 87
42 107 12 15 18 11 71 -36z m367 -62 c15 -53 4 -103 -18 -94 -10 3 -43 13 -74
22 -62 17 -73 36 -40 66 23 21 104 57 114 51 4 -3 12 -23 18 -45z m2229 -85
c37 -8 39 -23 15 -104 -18 -62 -88 -141 -144 -164 -34 -14 -36 -13 -78 24
l-42 38 25 43 c14 24 32 65 41 91 12 38 21 49 47 57 68 21 92 24 136 15z
m-2474 -109 c234 -38 390 -128 453 -263 24 -50 27 -69 26 -152 0 -52 -6 -107
-12 -121 -10 -25 -12 -26 -69 -17 -103 15 -258 -8 -365 -54 l-47 -20 -31 22
c-39 28 -100 36 -139 20 -29 -11 -34 -10 -93 35 -79 60 -181 109 -275 133 -40
10 -76 21 -79 25 -13 12 17 144 47 204 81 167 293 236 584 188z m-1183 -110
c60 -105 160 -333 153 -345 -4 -6 -13 -10 -20 -10 -18 0 -88 32 -97 45 -18 24
-88 321 -88 372 0 32 -2 35 52 -62z m3135 -10 c118 -35 254 -143 303 -241 35
-71 39 -173 10 -264 -20 -62 -100 -215 -186 -352 -34 -56 -44 -57 -158 -28
-92 23 -208 79 -309 149 -40 28 -83 51 -96 51 -29 0 -71 -43 -71 -72 0 -36 25
-64 103 -117 101 -68 187 -110 300 -146 l98 -31 -58 -75 c-32 -42 -85 -108
-118 -147 l-60 -72 -80 0 c-100 0 -125 -14 -125 -69 0 -26 7 -44 21 -57 20
-18 49 -19 737 -22 503 -2 719 -6 729 -13 8 -7 13 -34 13 -75 l0 -64 -131 0
c-217 0 -239 -21 -239 -228 0 -149 9 -179 63 -212 28 -17 51 -20 170 -20 l137
0 0 -64 c0 -45 -5 -69 -16 -80 -14 -14 -245 -16 -2394 -16 -2149 0 -2380 2
-2394 16 -11 11 -16 35 -16 80 l0 64 138 0 c118 0 141 3 169 20 54 33 63 63
63 212 0 207 -22 228 -239 228 l-131 0 0 63 c0 36 5 68 12 75 9 9 362 12 1529
12 1033 0 1526 3 1546 10 28 10 53 45 53 74 0 7 -9 25 -21 40 -18 22 -28 26
-74 26 l-54 0 7 33 c13 61 6 278 -11 343 l-17 61 46 116 c24 63 85 196 134
296 l89 181 91 -73 c116 -92 345 -237 377 -237 32 0 73 42 73 75 0 36 -36 68
-161 143 -116 70 -282 199 -287 222 -4 24 100 132 157 164 83 45 173 52 278
21z m-903 -173 c30 -170 46 -490 27 -520 -6 -10 -15 -3 -36 25 -15 21 -41 52
-57 69 l-30 32 11 148 c12 156 23 245 43 329 9 42 12 46 19 27 5 -12 15 -61
23 -110z m-1586 -284 c72 -26 143 -67 194 -112 l28 -25 -24 -48 c-21 -42 -39
-98 -64 -207 -6 -22 -17 -32 -53 -45 -25 -10 -67 -33 -94 -51 -45 -31 -48 -32
-58 -14 -6 10 -35 45 -66 77 l-55 58 14 42 c10 27 27 49 50 64 76 49 80 53 80
88 0 43 -29 75 -67 75 -68 -1 -164 -76 -197 -155 -17 -40 -16 -39 -74 -22
l-44 13 0 124 c-1 140 -10 125 97 156 79 22 243 13 333 -18z m1377 -212 c125
-126 189 -272 202 -461 5 -87 -8 -199 -26 -210 -5 -2 -13 28 -19 68 -8 53 -17
77 -33 90 -29 23 -74 22 -100 -4 -19 -19 -21 -29 -16 -90 l6 -69 -105 0 c-57
0 -104 4 -104 8 0 5 -20 38 -45 75 -25 37 -45 75 -45 85 0 33 60 122 104 154
68 50 73 70 41 169 -29 92 -37 221 -16 272 11 28 11 28 43 11 18 -9 69 -53
113 -98z m-367 68 l52 -15 0 -82 c0 -45 7 -111 15 -146 l15 -63 -39 -43 c-21
-23 -49 -61 -62 -83 -27 -47 -34 -49 -66 -24 l-23 17 20 63 c27 87 27 195 0
222 -25 25 -71 26 -99 3 -17 -14 -24 -35 -31 -98 -9 -83 -26 -145 -40 -145 -4
0 -21 3 -37 6 -29 6 -31 8 -37 75 -3 38 -21 113 -38 167 -18 53 -32 101 -33
106 0 12 89 43 158 56 64 11 175 4 245 -16z m-550 -105 c57 -112 75 -204 69
-339 -6 -106 -35 -234 -63 -277 -8 -13 -25 -23 -38 -23 -18 0 -25 8 -34 38
-11 37 -42 62 -76 62 -24 0 -64 -40 -71 -70 l-7 -31 -101 3 -102 3 -6 70 c-3
39 -9 86 -13 105 -6 28 -3 41 13 62 25 31 133 88 167 88 13 0 35 10 49 23 22
18 28 35 35 95 6 41 15 92 21 115 22 81 79 172 103 164 6 -2 30 -41 54 -88z
m2420 -104 c7 -14 12 -39 12 -56 l0 -30 -52 7 c-29 4 -55 8 -57 10 -5 4 40 77
53 86 20 14 33 8 44 -17z m16 -241 c125 -32 202 -88 245 -177 17 -34 31 -73
33 -87 l3 -25 -362 -3 c-200 -1 -363 0 -363 3 0 2 33 46 73 98 40 51 93 122
117 156 l45 63 75 -6 c41 -4 102 -14 134 -22z m-2068 -129 c67 -33 174 -127
174 -154 0 -7 -63 -11 -191 -11 -178 0 -191 1 -184 18 4 9 17 57 29 105 l21
88 40 -6 c22 -4 72 -22 111 -40z m-1886 -695 l0 -80 -110 0 -110 0 0 80 0 80
110 0 110 0 0 -80z m4600 0 l0 -80 -110 0 -110 0 0 80 0 80 110 0 110 0 0 -80z
m-150 -615 l0 -75 -1615 0 c-1602 0 -1615 0 -1635 -20 -30 -30 -27 -83 6 -109
l27 -21 1671 0 c1287 0 1675 -3 1684 -12 7 -7 12 -39 12 -74 l0 -62 -137 -4
c-115 -2 -143 -6 -170 -22 -57 -35 -65 -63 -61 -223 l3 -143 33 -32 32 -33
150 -3 150 -3 0 -64 c0 -44 -5 -68 -16 -79 -14 -14 -245 -16 -2394 -16 -2149
0 -2380 2 -2394 16 -11 11 -16 35 -16 79 l0 64 150 3 150 3 32 33 33 32 3 143
c4 160 -4 188 -61 223 -27 16 -55 20 -169 22 l-138 4 0 63 c0 40 5 67 13 74 9
7 190 11 591 13 l578 3 19 24 c25 30 24 62 -2 95 l-20 26 -515 0 -514 0 0 75
0 75 2260 0 2260 0 0 -75z m-4450 -605 l0 -80 -110 0 -110 0 0 80 0 80 110 0
110 0 0 -80z m4600 0 l0 -80 -110 0 -110 0 0 80 0 80 110 0 110 0 0 -80z"/>
<path d="M3251 2954 c-24 -30 -25 -43 -10 -77 11 -24 116 -91 161 -102 36 -9
81 31 81 73 0 40 -12 54 -88 97 -77 43 -116 45 -144 9z"/>
</g>
</svg>
