<?xml version="1.0" standalone="no"?>
<!DOCTYPE svg PUBLIC "-//W3C//DTD SVG 20010904//EN"
 "http://www.w3.org/TR/2001/REC-SVG-20010904/DTD/svg10.dtd">
<svg version="1.0" xmlns="http://www.w3.org/2000/svg"
 width="512.000000pt" height="512.000000pt" viewBox="0 0 512.000000 512.000000"
 preserveAspectRatio="xMidYMid meet">

<g transform="translate(0.000000,512.000000) scale(0.100000,-0.100000)"
fill="#000000" stroke="none">
<path d="M1530 4554 c-126 -14 -217 -29 -298 -51 -637 -168 -1112 -698 -1214
-1353 -18 -120 -18 -1060 0 -1180 102 -658 583 -1192 1220 -1354 354 -90 704
-68 1112 71 41 14 212 81 380 148 331 134 437 171 591 210 198 50 342 70 599
80 221 9 367 44 540 130 277 136 496 389 598 690 54 161 57 193 57 725 0 481
-1 497 -23 584 -146 576 -752 958 -1847 1165 -429 81 -904 126 -1415 135 -146
2 -281 3 -300 0z m710 -214 c614 -40 1177 -137 1604 -277 604 -197 957 -480
1050 -843 48 -188 23 -417 -69 -616 -41 -91 -99 -176 -180 -265 -68 -76 -78
-99 -61 -150 14 -42 70 -73 112 -63 31 8 112 87 178 173 l41 55 3 -35 c6 -54
-18 -206 -45 -294 -76 -243 -250 -454 -483 -583 -144 -80 -336 -122 -564 -122
-157 0 -386 -35 -590 -89 -154 -41 -243 -73 -596 -216 -168 -68 -354 -139
-415 -158 -518 -166 -984 -113 -1387 155 -124 83 -305 264 -387 387 -72 110
-139 244 -176 356 -31 92 -65 259 -65 313 l0 37 27 -45 c52 -89 164 -231 245
-313 234 -235 522 -388 863 -459 93 -19 141 -22 310 -22 341 0 502 40 1050
259 198 79 410 159 470 178 220 70 488 116 685 118 155 1 209 11 236 43 46 52
23 137 -41 155 -37 10 -346 -2 -470 -18 -279 -38 -476 -96 -904 -270 -283
-115 -367 -147 -471 -180 -613 -195 -1189 -68 -1596 351 -205 210 -323 433
-385 728 -32 151 -32 410 0 560 61 289 184 520 383 726 238 245 536 392 878
434 86 10 522 4 750 -10z"/>
<path d="M1475 4146 c-496 -73 -893 -424 -1031 -911 -21 -74 -44 -240 -44
-322 -1 -467 270 -907 690 -1118 339 -170 707 -177 1155 -22 39 14 178 68 310
122 312 127 415 165 566 209 243 70 442 102 726 116 229 11 293 24 431 92 171
84 311 233 381 409 45 113 65 226 58 334 -7 106 -23 160 -74 258 -47 90 -174
219 -294 299 -219 147 -586 286 -989 376 -144 32 -485 92 -526 92 -35 0 -84
-48 -90 -91 -5 -30 -1 -42 23 -69 28 -31 35 -33 203 -61 795 -133 1335 -362
1493 -632 126 -214 26 -546 -210 -703 -31 -21 -95 -51 -140 -66 -75 -26 -103
-30 -281 -38 -307 -14 -519 -50 -788 -131 -158 -47 -246 -80 -599 -222 -386
-156 -523 -193 -744 -204 -296 -15 -580 96 -791 307 -356 355 -410 899 -132
1319 141 213 359 368 618 439 97 26 106 27 394 27 162 0 303 5 313 9 23 11 47
58 47 93 0 31 -24 65 -57 82 -35 18 -508 23 -618 7z"/>
<path d="M2304 4113 c-50 -41 -57 -96 -19 -141 30 -36 66 -47 110 -32 64 21
87 104 42 155 -30 35 -101 45 -133 18z"/>
<path d="M1618 3744 c-264 -64 -431 -320 -362 -555 61 -207 257 -342 494 -341
109 0 196 23 272 71 157 100 235 240 226 407 -4 70 -10 94 -41 156 -54 107
-125 177 -230 225 -111 52 -244 65 -359 37z m269 -214 c58 -25 126 -92 149
-145 21 -51 17 -122 -10 -180 -44 -95 -150 -158 -270 -159 -87 0 -140 14 -202
57 -180 121 -136 362 79 439 70 25 182 20 254 -12z"/>
<path d="M4403 2143 c-35 -7 -73 -59 -73 -100 0 -82 106 -125 162 -65 35 37
41 64 24 107 -11 25 -26 40 -50 50 -20 8 -37 14 -38 14 -2 -1 -13 -4 -25 -6z"/>
</g>
</svg>
