<?xml version="1.0" standalone="no"?>
<!DOCTYPE svg PUBLIC "-//W3C//DTD SVG 20010904//EN"
 "http://www.w3.org/TR/2001/REC-SVG-20010904/DTD/svg10.dtd">
<svg version="1.0" xmlns="http://www.w3.org/2000/svg"
 width="512.000000pt" height="512.000000pt" viewBox="0 0 512.000000 512.000000"
 preserveAspectRatio="xMidYMid meet">

<g transform="translate(0.000000,512.000000) scale(0.100000,-0.100000)"
fill="#000000" stroke="none">
<path d="M1998 5100 c-38 -29 -39 -53 -6 -122 31 -65 78 -197 78 -219 0 -9
-41 -10 -172 -6 -202 7 -318 28 -478 88 -88 33 -111 38 -133 30 -49 -19 -54
-50 -29 -172 45 -221 133 -435 245 -598 l54 -79 -33 -5 c-116 -19 -204 -123
-204 -241 0 -89 73 -187 161 -216 21 -7 39 -16 39 -19 -1 -20 -153 -211 -321
-403 -302 -345 -391 -464 -498 -668 -154 -294 -216 -555 -215 -905 1 -205 16
-304 70 -470 184 -568 752 -968 1521 -1070 425 -57 897 -8 1270 131 584 217
943 618 1038 1159 10 57 16 150 16 255 0 408 -106 755 -336 1100 -85 128 -141
197 -341 424 -154 175 -273 317 -274 327 0 3 152 -29 338 -73 631 -146 612
-142 677 -123 218 63 232 366 21 444 -28 10 -118 33 -201 52 l-149 33 98 30
c111 35 162 71 195 139 27 55 28 146 2 202 -37 82 -139 142 -228 133 -27 -3
-205 -49 -396 -102 l-348 -97 -38 43 -39 43 64 128 c196 389 304 706 273 796
-18 52 -42 56 -181 32 -207 -36 -344 -51 -548 -57 -262 -9 -628 17 -859 62
-97 18 -103 18 -133 -6z m1562 -153 c0 -2 -15 -50 -34 -108 -45 -139 -123
-321 -215 -503 l-76 -149 -55 -19 c-59 -20 -121 -73 -141 -119 l-11 -29 -108
0 -107 0 -45 103 c-99 222 -152 395 -164 532 -11 136 -33 154 -157 131 -43 -9
-111 -18 -151 -22 l-72 -6 -22 87 c-13 48 -21 90 -18 92 2 3 60 -2 128 -11
393 -49 771 -48 1104 3 135 21 144 22 144 18z m-1854 -333 c156 -23 451 -23
618 1 128 18 136 16 136 -33 0 -76 103 -392 171 -523 l19 -39 -449 0 -449 0
-51 65 c-136 173 -236 376 -275 562 l-7 31 83 -23 c46 -12 138 -31 204 -41z
m2577 -535 c9 -12 17 -36 17 -54 0 -62 -18 -71 -250 -137 l-215 -60 -80 16
c-138 27 -266 59 -261 64 3 3 162 49 353 103 367 104 402 109 436 68z m-994
-64 c16 -8 31 -22 35 -30 3 -9 6 -103 6 -208 0 -182 -1 -192 -22 -214 -31 -33
-87 -31 -119 3 -24 25 -24 28 -24 218 0 204 3 217 50 236 29 13 43 12 74 -5z
m-279 -230 l0 -84 -399 -3 c-376 -3 -400 -4 -420 -22 -27 -25 -28 -79 -1 -106
19 -19 33 -20 424 -20 l403 0 31 -49 c43 -70 99 -104 176 -109 l61 -4 57 -77
c31 -42 134 -164 229 -271 295 -334 384 -456 488 -660 131 -257 192 -510 192
-800 0 -303 -70 -534 -229 -760 -476 -675 -1767 -881 -2652 -423 -592 305
-840 854 -699 1548 43 211 143 444 276 642 82 121 147 202 333 413 249 284
292 337 370 469 l46 76 111 3 c95 2 113 5 128 22 25 28 23 76 -4 103 -20 21
-31 22 -215 25 -176 3 -195 5 -215 23 -43 40 -34 109 19 136 19 10 187 13 758
13 l732 0 0 -85z m950 -145 c245 -55 460 -107 478 -115 32 -15 52 -47 52 -86
0 -32 -44 -69 -82 -69 -18 0 -235 46 -481 102 l-449 103 6 35 c3 19 6 58 6 87
0 37 4 51 13 48 6 -2 212 -49 457 -105z"/>
<path d="M2365 3196 c-16 -8 -40 -23 -53 -35 -49 -47 -57 -71 -62 -180 l-5
-104 -52 -18 c-139 -47 -272 -152 -341 -270 -146 -250 -106 -558 101 -760 130
-127 274 -178 502 -179 114 0 159 -16 212 -71 85 -90 82 -219 -7 -310 -59 -62
-97 -71 -266 -67 -116 3 -136 6 -161 24 -45 33 -70 79 -78 141 -9 73 -37 125
-88 160 -34 24 -50 28 -107 28 -56 0 -73 -4 -108 -28 -61 -40 -87 -95 -85
-184 4 -160 72 -298 200 -405 53 -44 169 -108 196 -108 7 0 29 -5 50 -11 l37
-10 0 -85 c0 -123 26 -176 105 -216 48 -25 128 -27 170 -5 34 17 76 60 96 97
7 14 16 70 19 125 l5 99 42 12 c145 42 289 162 360 300 149 289 62 630 -205
805 -116 76 -247 108 -445 109 -108 0 -179 41 -218 125 -24 52 -24 138 0 191
26 57 92 111 155 125 28 6 103 9 167 7 104 -3 119 -6 152 -28 58 -39 77 -89
77 -201 0 -106 17 -154 68 -203 88 -83 248 -53 301 56 18 38 21 63 21 162 0
75 -6 140 -16 180 -20 78 -75 183 -127 242 -69 79 -201 155 -296 170 l-41 7 0
84 c0 122 -30 182 -112 224 -43 22 -119 24 -163 5z m115 -155 c5 -11 10 -71
10 -134 0 -148 4 -154 118 -172 233 -38 362 -196 362 -444 0 -102 -7 -121 -45
-121 -37 0 -45 19 -45 115 0 167 -51 262 -174 325 l-69 35 -171 0 c-170 0
-171 0 -236 -31 -80 -38 -155 -110 -189 -184 -23 -48 -26 -68 -26 -160 0 -96
2 -110 28 -160 82 -157 208 -220 443 -220 146 0 255 -43 348 -138 61 -62 94
-121 117 -206 71 -261 -88 -516 -359 -579 -99 -23 -102 -28 -102 -177 0 -136
-5 -150 -52 -150 -34 0 -37 9 -40 157 -4 138 -12 150 -109 163 -116 15 -193
54 -267 134 -102 111 -142 316 -63 316 28 0 41 -22 51 -84 18 -113 77 -196
176 -246 47 -24 57 -25 229 -25 l180 0 65 31 c83 39 145 101 184 184 27 58 31
75 31 155 0 77 -4 98 -27 147 -36 78 -73 122 -136 164 -72 48 -125 61 -282 67
-148 6 -217 24 -299 77 -200 128 -272 395 -163 606 65 126 188 217 329 244 92
18 97 27 101 179 2 69 8 132 14 139 16 19 56 14 68 -7z"/>
</g>
</svg>
