<?xml version="1.0" standalone="no"?>
<!DOCTYPE svg PUBLIC "-//W3C//DTD SVG 20010904//EN"
 "http://www.w3.org/TR/2001/REC-SVG-20010904/DTD/svg10.dtd">
<svg version="1.0" xmlns="http://www.w3.org/2000/svg"
 width="512.000000pt" height="512.000000pt" viewBox="0 0 512.000000 512.000000"
 preserveAspectRatio="xMidYMid meet">

<g transform="translate(0.000000,512.000000) scale(0.100000,-0.100000)"
fill="#000000" stroke="none">
<path d="M1401 5024 c-83 -22 -165 -71 -224 -133 -29 -31 -58 -63 -63 -72 -5
-9 -36 -20 -74 -27 -163 -29 -301 -142 -364 -298 -20 -48 -29 -58 -72 -78
-206 -97 -347 -308 -361 -541 -7 -117 14 -214 68 -325 34 -68 59 -101 124
-165 l82 -80 -14 -40 c-8 -22 -17 -74 -20 -115 -9 -127 36 -257 122 -349 l44
-47 -6 -74 c-18 -235 134 -445 363 -505 32 -8 58 -16 59 -17 5 -9 175 -492
172 -493 -26 -11 -128 -112 -171 -168 l-57 -75 -37 9 c-303 67 -406 89 -429
89 -58 0 -108 -22 -154 -69 -55 -54 -73 -107 -67 -193 4 -52 2 -58 -15 -58
-111 0 -227 -123 -227 -240 0 -117 116 -240 227 -240 17 0 19 -6 15 -58 -6
-86 12 -139 67 -193 46 -47 96 -69 154 -69 23 0 126 22 429 89 l37 9 61 -80
c175 -226 459 -353 749 -335 126 8 2862 431 2921 452 70 25 121 59 176 117
191 202 151 538 -81 685 -25 15 -45 32 -45 36 0 4 18 31 39 60 92 122 166 300
195 466 18 108 21 375 6 486 -22 154 -72 293 -153 431 -69 118 -254 307 -340
348 -112 53 -236 44 -340 -25 l-48 -31 -40 28 c-22 15 -63 35 -92 45 -47 16
-52 20 -50 46 2 15 10 107 19 203 9 96 13 197 9 224 -12 96 -77 185 -170 234
-44 23 -62 26 -145 26 -83 0 -101 -3 -145 -26 -91 -48 -156 -136 -170 -230 -6
-38 15 -352 30 -439 3 -22 -1 -26 -39 -37 -23 -6 -65 -27 -94 -46 -61 -43 -67
-37 -64 54 3 77 -18 164 -57 237 l-29 53 29 53 c148 275 -1 612 -308 692 -31
8 -75 15 -98 15 -39 0 -41 1 -73 64 -44 84 -131 167 -219 208 -37 17 -91 53
-119 79 -81 76 -209 129 -309 129 -39 0 -41 1 -73 64 -99 191 -334 296 -541
240z m268 -184 c103 -55 141 -116 175 -281 l5 -25 73 14 c70 15 168 11 168 -6
0 -4 -26 -18 -57 -31 -58 -26 -161 -113 -189 -160 -13 -23 -27 -29 -82 -39
-162 -27 -303 -142 -366 -298 -20 -48 -29 -58 -72 -78 -206 -97 -347 -308
-361 -541 -7 -117 14 -214 68 -325 34 -68 59 -101 124 -165 l82 -80 -14 -40
c-8 -22 -17 -74 -20 -115 -9 -127 36 -257 122 -349 l43 -46 -5 -80 c-9 -128
34 -257 114 -346 20 -22 34 -41 32 -42 -2 -2 -32 -15 -67 -29 l-63 -27 -8 22
c-4 12 -50 140 -101 283 l-92 261 -74 6 c-216 16 -348 208 -285 415 11 39 21
72 21 74 0 3 -25 22 -55 42 -89 62 -146 169 -145 275 1 58 18 107 65 183 20
32 35 61 34 62 -2 2 -33 18 -68 36 -292 146 -360 523 -138 758 59 61 113 96
200 127 l61 22 13 57 c25 111 86 189 183 235 44 20 71 26 134 27 l79 0 22 46
c33 69 62 105 108 137 105 72 226 79 336 21z m720 -480 c85 -46 138 -116 160
-211 5 -24 12 -56 15 -70 l6 -26 62 14 c87 21 165 11 240 -29 66 -35 97 -67
136 -142 22 -43 26 -64 26 -136 0 -98 -21 -150 -94 -232 l-42 -48 42 -47 c54
-61 87 -128 95 -189 l7 -49 -79 -1 c-119 -1 -171 -29 -313 -173 -84 -85 -129
-140 -166 -203 l-52 -88 -47 137 -47 136 18 66 c49 185 144 353 279 493 l55
56 -47 59 c-26 32 -48 60 -51 63 -2 3 -39 -32 -83 -78 -90 -95 -181 -228 -230
-337 -19 -41 -36 -75 -39 -75 -3 0 -34 63 -69 139 -56 124 -209 410 -251 471
l-16 23 -65 -43 -65 -43 64 -111 c81 -141 197 -374 191 -381 -3 -3 -25 2 -50
10 -80 27 -220 45 -345 45 l-124 0 6 -47 c3 -27 7 -62 10 -79 l4 -31 148 -6
c158 -6 236 -21 339 -67 117 -53 124 -62 191 -243 71 -192 97 -275 90 -282 -3
-3 -29 5 -59 19 -103 45 -248 78 -397 91 l-82 8 0 -81 0 -80 76 -7 c171 -16
362 -72 448 -133 l38 -27 2 -240 c2 -205 6 -251 23 -317 11 -43 20 -78 19 -78
-1 0 -119 18 -261 40 -143 22 -274 40 -292 40 -58 0 -144 40 -193 89 -91 92
-119 204 -81 329 11 39 21 72 21 74 0 3 -25 22 -55 42 -89 62 -146 169 -145
275 1 58 18 107 65 183 20 32 35 61 34 62 -2 2 -33 18 -68 36 -292 146 -360
523 -138 758 59 61 113 96 200 127 l61 22 13 57 c25 111 86 189 183 235 44 20
71 26 134 27 l79 0 22 46 c33 69 62 105 108 137 105 72 226 79 336 21z m1372
-620 c27 -14 46 -34 61 -64 l21 -43 -38 -412 c-21 -232 -34 -416 -29 -420 5
-4 30 -16 56 -25 58 -21 94 -49 84 -65 -21 -33 -145 -71 -236 -71 -91 0 -215
38 -236 71 -10 16 26 44 84 65 26 9 51 21 56 25 5 4 -8 188 -29 420 l-38 412
21 43 c38 78 139 106 223 64z m-724 -715 c67 -28 67 -32 17 -90 -99 -117 -181
-283 -227 -463 -20 -81 -22 -109 -22 -392 0 -193 4 -321 12 -347 6 -24 10 -43
8 -43 -16 0 -270 42 -276 46 -13 7 -47 130 -60 214 -18 118 -7 426 19 523 45
167 137 323 262 448 114 112 183 139 267 104z m1430 -6 c55 -27 187 -156 242
-238 59 -86 115 -208 143 -311 21 -77 23 -106 23 -310 0 -203 -2 -233 -23
-310 -48 -179 -202 -430 -263 -430 -28 0 -130 18 -136 24 -2 1 8 29 22 60 30
68 61 184 75 281 13 94 13 494 -1 591 -25 182 -115 400 -223 541 -31 40 -56
75 -56 78 0 12 87 45 119 45 19 0 54 -9 78 -21z m-1053 -20 c11 -59 7 -97 -12
-103 -28 -9 -94 -78 -108 -113 -18 -41 -18 -85 -1 -126 16 -38 83 -101 133
-124 l34 -17 -7 -75 c-13 -129 -10 -697 5 -775 7 -37 11 -70 10 -72 -8 -8
-463 69 -470 79 -24 38 -33 159 -33 422 1 260 2 286 24 365 44 166 127 313
245 437 60 64 147 133 166 133 4 0 10 -14 14 -31z m609 0 c110 -73 248 -257
307 -412 62 -159 65 -184 64 -512 0 -275 -2 -306 -21 -377 -33 -118 -82 -228
-101 -228 -10 0 -155 21 -324 47 l-307 47 -10 45 c-26 122 -33 262 -28 539 2
158 8 297 12 310 7 20 14 22 69 22 140 1 275 49 344 124 71 77 69 158 -5 237
-25 26 -54 51 -64 54 -20 7 -25 44 -13 104 8 39 19 39 77 0z m-788 -1534 c770
-119 1416 -220 1435 -225 117 -32 210 -155 210 -280 0 -125 -93 -248 -210
-280 -19 -5 -667 -107 -1440 -226 -1323 -203 -1411 -216 -1505 -211 -189 10
-333 75 -470 212 -91 91 -144 175 -182 290 -23 71 -26 96 -26 215 0 119 3 144
26 215 38 115 91 199 182 290 146 146 299 211 505 214 52 1 497 -64 1475 -214z
m-2502 -145 c100 -22 187 -42 193 -44 9 -3 9 -14 0 -40 l-11 -36 -197 0 c-185
0 -199 1 -218 20 -40 40 -15 140 35 140 8 0 97 -18 198 -40z m147 -360 l0 -80
-295 0 -296 0 -24 25 c-16 15 -25 36 -25 55 0 19 9 40 25 55 l24 25 296 0 295
0 0 -80z m46 -276 c9 -26 9 -37 0 -40 -23 -8 -376 -84 -391 -84 -29 0 -55 38
-55 80 0 27 7 47 20 60 19 19 33 20 218 20 l197 0 11 -36z"/>
<path d="M1680 960 l0 -400 80 0 80 0 0 400 0 400 -80 0 -80 0 0 -400z"/>
<path d="M2320 960 l0 -400 80 0 80 0 0 400 0 400 -80 0 -80 0 0 -400z"/>
<path d="M2960 960 l0 -400 80 0 80 0 0 400 0 400 -80 0 -80 0 0 -400z"/>
<path d="M3600 960 l0 -240 80 0 80 0 0 240 0 240 -80 0 -80 0 0 -240z"/>
<path d="M4240 960 l0 -160 80 0 80 0 0 160 0 160 -80 0 -80 0 0 -160z"/>
</g>
</svg>
